<?xml version="1.0" encoding="utf-8"?>
<!-- Generator: Adobe Illustrator 21.1.0, SVG Export Plug-In . SVG Version: 6.00 Build 0)  -->
<svg version="1.1" id="Layer_1" xmlns="http://www.w3.org/2000/svg" xmlns:xlink="http://www.w3.org/1999/xlink" x="0px" y="0px"
	 viewBox="0 0 175 36" style="enable-background:new 0 0 175 36;" xml:space="preserve">
<style type="text/css">
	.st0{fill:#4EB5BB;}
</style>
<g>
	<path class="st0" d="M34.1,0H19c-1.7,0-3.4,0.3-5.2,0.9C12,1.6,10.3,2.6,8.7,3.9c-1.6,1.3-3,3-4.3,5.1c-1.3,2.1-2.2,4.6-2.8,7.5
		L1,19.3c-0.3,1.5-0.5,3-0.5,4.4c0,2.2,0.4,4,1.1,5.6c0.7,1.5,1.6,2.8,2.7,3.8c1.1,1,2.3,1.7,3.6,2.2c1.3,0.5,2.6,0.7,3.8,0.7h14.8
		c0,0-0.7-6.3-7.2-6.3h-4.1c-2.2,0-4-0.6-5.4-1.7c-1.4-1.1-2-2.9-2-5.4c0-0.3,0-0.5,0-0.8c0-0.3,0.1-0.7,0.1-1.1
		c0.1-0.4,0.2-0.9,0.3-1.5c0.1-0.6,0.3-1.3,0.4-2.2c0.4-2,1-3.6,1.8-4.9c0.8-1.3,1.7-2.4,2.8-3.3c1.1-0.8,2.2-1.5,3.4-1.8
		c1.2-0.4,2.5-0.6,3.8-0.6h7C34.4,6.3,34.1,0,34.1,0z"/>
	<path class="st0" d="M93.5,6.3c9.1,0,8.4-6.3,8.4-6.3H76L68.3,36h25.1c0,0,0.1-6.3-7.3-6.3H77l1.9-9h8.8c9.3,0.1,8.9-6.2,8.9-6.2
		H80.2l1.7-8.1H93.5z"/>
	<path class="st0" d="M133.3,20.2C133.3,20.2,133.3,20.2,133.3,20.2L133.3,20.2z"/>
	<path class="st0" d="M108.8,18.9l0.4-1.9c0.4-2,1-3.6,1.8-4.9c0.8-1.3,1.7-2.4,2.8-3.3c1.1-0.8,2.2-1.5,3.4-1.8
		c1.2-0.4,2.5-0.6,3.8-0.6h5.2c8.7,0.7,8.5-6.3,8.5-6.3h-15.1c-1.7,0-3.4,0.3-5.2,0.9c-1.8,0.6-3.5,1.6-5.1,2.9
		c-1.6,1.3-3,3-4.3,5.1c-1.3,2.1-2.2,4.6-2.8,7.5l-0.6,2.8v-0.1c-0.2,0.8-0.3,1.6-0.4,2.3c-0.1,0.8-0.1,1.6-0.1,2.3
		c0,2.1,0.3,3.9,1,5.4c0.7,1.5,1.6,2.8,2.6,3.8c1.1,1,2.3,1.7,3.6,2.2c1.4,0.5,2.7,0.7,4.1,0.7h13.7c1.1,0,2.1-0.4,3-1.3
		c0.9-0.8,1.5-1.9,1.7-3l2.5-11.5c0,0,0,0,0,0c0-0.1,0.1-0.5,0.5-2.2c0.8-3.8-3.8-3.6-3.8-3.6h-5.1c-6.3-0.2-7.3,6.3-7.3,6.3h8.2
		l-1.9,9h-8.1c-2.2,0-4-0.6-5.4-1.7c-1.4-1.1-2-2.9-2-5.4c0-0.5,0-1.1,0.1-1.7C108.6,20.3,108.7,19.6,108.8,18.9z M133.3,20.2
		C133.3,20.2,133.3,20.2,133.3,20.2C133.3,20.2,133.3,20.2,133.3,20.2z"/>
	<path class="st0" d="M173.5,7.3c-0.8-1.6-1.8-3-2.9-4c-1.2-1.1-2.5-1.9-3.9-2.4c-1.4-0.5-2.7-0.8-4-0.8h-5.3c-1.7,0-3.5,0.3-5.4,1
		c-1.9,0.6-3.7,1.6-5.4,3c-1.7,1.3-3.2,3.1-4.6,5.2c-1.3,2.1-2.3,4.6-3,7.5c0,0-0.7,3.2-0.9,6.2c-0.1,2.1,0.4,4,1.1,5.6
		c0.7,1.6,1.7,3,2.8,4.1c1.1,1.1,2.4,1.9,3.8,2.5c1.4,0.6,2.8,0.8,4.1,0.8h5.3c1.6,0,3.3-0.3,5.2-1c1.9-0.6,3.7-1.6,5.4-3
		c1.8-1.3,3.3-3.1,4.7-5.2c1.4-2.1,2.4-4.6,3-7.5l0.6-2.4c0.1-0.7,0.3-1.4,0.3-2c0.1-0.6,0.1-1.3,0.1-1.9
		C174.6,10.8,174.3,8.9,173.5,7.3z M167,16.7L167,16.7l-0.4,2c-0.4,2-1,3.6-1.9,5c-0.8,1.4-1.8,2.5-2.9,3.4
		c-1.1,0.9-2.3,1.5-3.6,1.9c-1.3,0.4-2.6,0.6-4,0.6h-1.1c-2.3,0-4.2-0.6-5.6-1.7c-1.4-1.1-2.1-3-2.1-5.5c0-0.3,0-0.8,0.1-1.4
		c0.1-0.6,0.2-1.3,0.3-2.2l0.4-1.9c0.4-2,1-3.6,1.9-4.9c0.9-1.3,1.9-2.4,3-3.3c1.1-0.8,2.3-1.5,3.6-1.8c1.3-0.4,2.6-0.6,3.9-0.6h1.1
		c1,0,2,0.1,3,0.4c0.9,0.3,1.7,0.7,2.4,1.2c0.7,0.6,1.2,1.3,1.6,2.2c0.4,0.9,0.6,2,0.6,3.3C167.4,14.7,167.3,15.8,167,16.7z"/>
	<path class="st0" d="M62,0l-3.1,14.4h-14l1.7-8.1L48,0h-7.2l-7.7,35.9c0,0,7,1.2,8.5-5.7l2-9.5h14l-3.3,15.2c0,0,7,1.2,8.5-5.7
		l5.1-23.9L69.2,0H62z"/>
</g>
</svg>
